Coordinates
version=1
nRows=13
nColumns=38
inDegrees=no

Units are S.I. units (second, meters, Newtons, ...)
If the header above contains a line with 'inDegrees', this indicates whether rotational values are in degrees (yes) or radians (no).

endheader
time	pelvis_tilt	pelvis_list	pelvis_rotation	pelvis_tx	pelvis_ty	pelvis_tz	hip_flexion_r	hip_adduction_r	hip_rotation_r	knee_angle_r	ankle_angle_r	subtalar_angle_r	mtp_angle_r	hip_flexion_l	hip_adduction_l	hip_rotation_l	knee_angle_l	ankle_angle_l	subtalar_angle_l	mtp_angle_l	lumbar_extension	lumbar_bending	lumbar_rotation	arm_flex_r	arm_add_r	arm_rot_r	elbow_flex_r	pro_sup_r	wrist_flex_r	wrist_dev_r	arm_flex_l	arm_add_l	arm_rot_l	elbow_flex_l	pro_sup_l	wrist_flex_l	wrist_dev_l
20	1.28237	1.45962	0.414663	0.656401	1.6019	0.925534	0.0250988	0.0310394	-0.105537	0.517805	-0.131496	0	0	-0.0136731	-0.0619982	0.212429	0.546908	0.0292374	0	0	-0.573356	0.22554	-0.0669866	0.276652	-0.460203	0.108832	1.276	1.49941	0	0	0.1103	-0.198116	-0.115619	1.33536	1.5708	0	0
20.01	1.26941	1.4581	0.427199	0.656179	1.60424	0.925153	0.0282991	0.0313831	-0.104289	0.525014	-0.13187	0	0	-0.0172259	-0.061742	0.218334	0.54167	0.030505	0	0	-0.572338	0.225861	-0.0659184	0.268617	-0.464235	0.108896	1.28144	1.49362	0	0	0.102082	-0.195551	-0.117447	1.341	1.5708	0	0
20.02	1.26767	1.45593	0.428553	0.655917	1.60663	0.924761	0.0304481	0.0332809	-0.102659	0.531913	-0.131826	0	0	-0.0192681	-0.06362	0.218558	0.541347	0.0326803	0	0	-0.572621	0.227446	-0.0637028	0.259507	-0.46932	0.107921	1.28915	1.48744	0	0	0.0938764	-0.191945	-0.120209	1.34778	1.5708	0	0
20.03	1.27233	1.4535	0.423373	0.655623	1.609	0.924462	0.0328925	0.0353521	-0.101812	0.54025	-0.13232	0	0	-0.0220214	-0.0660723	0.219328	0.541199	0.0340287	0	0	-0.573736	0.22951	-0.0610272	0.250435	-0.474186	0.106218	1.29687	1.48277	0	0	0.085944	-0.188077	-0.123215	1.35445	1.5708	0	0
20.04	1.27975	1.45086	0.415138	0.655332	1.61136	0.92424	0.0357757	0.0375052	-0.100372	0.549267	-0.133659	0	0	-0.0251316	-0.0687478	0.219933	0.540883	0.0353611	0	0	-0.575312	0.231727	-0.0579727	0.241267	-0.478412	0.104114	1.30447	1.47831	0	0	0.0782936	-0.184025	-0.12612	1.36027	1.5708	0	0
20.05	1.28522	1.44808	0.408624	0.655084	1.61372	0.92402	0.0387396	0.0402717	-0.0969877	0.557239	-0.135082	0	0	-0.0281014	-0.0714207	0.220264	0.54021	0.0366695	0	0	-0.575934	0.234098	-0.0549182	0.232821	-0.481817	0.102048	1.3104	1.47537	0	0	0.0713475	-0.180246	-0.128135	1.36352	1.5708	0	0
20.06	1.28915	1.44506	0.4035	0.654893	1.61606	0.923804	0.0423274	0.0433163	-0.0921852	0.565442	-0.136257	0	0	-0.0309289	-0.0743348	0.22047	0.539281	0.0383946	0	0	-0.576363	0.236623	-0.0515032	0.224068	-0.485206	0.0995118	1.31663	1.47271	0	0	0.0645368	-0.17644	-0.129775	1.36609	1.5708	0	0
20.07	1.29268	1.44194	0.398762	0.654699	1.61841	0.92357	0.0461621	0.046804	-0.0870025	0.573515	-0.136474	0	0	-0.0339303	-0.0773103	0.220869	0.538115	0.0404546	0	0	-0.576546	0.239349	-0.0479149	0.215089	-0.488625	0.0966873	1.323	1.47059	0	0	0.0578759	-0.17257	-0.130984	1.36806	1.5708	0	0
20.08	1.2958	1.43879	0.394562	0.654511	1.62074	0.923326	0.0504432	0.0505734	-0.0817669	0.581507	-0.135834	0	0	-0.0369768	-0.0803008	0.222485	0.53728	0.0419517	0	0	-0.576781	0.24214	-0.0442827	0.205895	-0.492013	0.0934632	1.32958	1.46928	0	0	0.0511812	-0.16885	-0.132	1.37024	1.5708	0	0
20.09	1.29882	1.43578	0.390494	0.654353	1.62307	0.923105	0.0548753	0.0543503	-0.0761121	0.588699	-0.134629	0	0	-0.0400419	-0.0831643	0.223784	0.53636	0.0433711	0	0	-0.577121	0.244837	-0.0408056	0.196675	-0.495057	0.0900444	1.33598	1.46895	0	0	0.0444012	-0.165612	-0.132893	1.37272	1.5708	0	0
20.1	1.30068	1.43302	0.387881	0.654237	1.62544	0.922867	0.058402	0.0582977	-0.069853	0.592423	-0.132918	0	0	-0.0429349	-0.0858734	0.224602	0.535378	0.0449547	0	0	-0.577278	0.247332	-0.0377238	0.1868	-0.497253	0.0859337	1.3422	1.46856	0	0	0.0375637	-0.162976	-0.133674	1.37541	1.5708	0	0
20.11	1.30803	1.43001	0.380083	0.654074	1.62776	0.922762	0.0635781	0.0618637	-0.0664708	0.600022	-0.130536	0	0	-0.0463663	-0.0891481	0.225368	0.534278	0.0462682	0	0	-0.578373	0.250492	-0.0346195	0.177509	-0.49971	0.0819146	1.34815	1.46912	0	0	0.0310305	-0.160656	-0.1343	1.37821	1.5708	0	0
20.12	1.31446	1.42713	0.373624	0.653805	1.63007	0.922595	0.0682263	0.0653616	-0.0633394	0.604839	-0.12714	0	0	-0.0498001	-0.0921664	0.226727	0.533065	0.0475104	0	0	-0.579174	0.253837	-0.0321714	0.168421	-0.502007	0.0779749	1.3539	1.47023	0	0	0.0245266	-0.15865	-0.134647	1.38062	1.5708	0	0
